<svg width="100%" height="auto" viewBox="0 0 510 56" fill="none" xmlns="http://www.w3.org/2000/svg">
<path fill-rule="evenodd" clip-rule="evenodd" d="M251.338 28.4593L223.806 55.9913L222.879 55.0643L250.411 27.5322L223.806 0.927055L224.733 0L251.338 26.6052L277.944 0L278.871 0.927055L252.266 27.5322L279.798 55.0643L278.871 55.9913L251.338 28.4593Z" fill="white"/>
<path fill-rule="evenodd" clip-rule="evenodd" d="M308 14.8868V10.6426H335.624V14.8868H308ZM319.899 34.1775L319.907 34.1694C321.139 32.901 322.371 31.6324 323.628 30.3395H308.021V25.983H323.461C322.238 24.7259 321.019 23.4744 319.803 22.2254C318.597 20.9862 317.393 19.7494 316.189 18.5121C316.222 18.4651 316.253 18.4181 316.285 18.3702L316.285 18.3702L316.316 18.3249C316.341 18.3211 316.366 18.3168 316.392 18.3123C316.457 18.301 316.523 18.2896 316.587 18.2896C317.043 18.2896 317.498 18.289 317.954 18.2884C319.206 18.2866 320.457 18.2849 321.71 18.2962C321.902 18.2962 322.148 18.3601 322.277 18.4922C324.944 21.2195 327.602 23.9583 330.259 26.6973L330.261 26.6993L331.488 27.963C331.518 27.9945 331.543 28.0335 331.571 28.0794C331.586 28.104 331.603 28.1306 331.622 28.159C331.583 28.2025 331.546 28.2452 331.509 28.2872L331.509 28.2873C331.424 28.3833 331.343 28.4754 331.256 28.5643C330.395 29.4518 329.533 30.3389 328.671 31.2261L328.671 31.2262C326.603 33.3553 324.534 35.4849 322.472 37.621C322.215 37.8875 321.964 38.0108 321.592 38.0064C320.307 37.9919 319.021 37.9939 317.679 37.9961H317.679L317.673 37.9961C317.186 37.9968 316.691 37.9976 316.187 37.9976C317.44 36.7086 318.669 35.4432 319.899 34.1775ZM335.632 45.6426V41.4006H308.011V45.6426H335.632Z" fill="#FAFAFA"/>
<path fill-rule="evenodd" clip-rule="evenodd" d="M485.38 24.2966V24.2964C485.383 22.4999 485.385 20.7031 485.369 18.907C485.363 18.3687 485.534 18.2067 486.015 18.209C489.237 18.2264 492.46 18.2252 495.683 18.216C496.072 18.216 496.236 18.3514 496.215 18.7843C496.192 19.2461 496.185 19.7126 496.22 20.1721C496.259 20.671 496.106 20.8516 495.627 20.8458C494.052 20.8284 492.476 20.8306 490.9 20.8328C490.375 20.8335 489.85 20.8342 489.325 20.8342C489.28 20.8342 489.236 20.8331 489.191 20.8319C489.147 20.8307 489.102 20.8296 489.058 20.8296C488.257 20.8296 488.238 20.8319 488.21 21.6711C488.198 22.0501 488.201 22.4298 488.203 22.8094V22.8106C488.206 23.183 488.208 23.5553 488.197 23.9271C488.181 24.4722 488.374 24.676 488.888 24.6702C490.217 24.6548 491.546 24.6609 492.875 24.667L492.876 24.667C493.344 24.6691 493.813 24.6713 494.282 24.6725C494.353 24.6725 494.424 24.6763 494.495 24.6801C494.62 24.6868 494.745 24.6934 494.869 24.6794C495.309 24.6285 495.408 24.8681 495.4 25.2929C495.394 25.5711 495.393 25.8081 495.392 26.0098C495.389 26.649 495.387 26.9343 495.245 27.0568C495.131 27.1555 494.925 27.1484 494.554 27.1357C494.347 27.1286 494.089 27.1197 493.766 27.1264C492.156 27.1602 490.543 27.1545 488.933 27.1488L488.799 27.1484C488.413 27.1472 488.177 27.2549 488.184 27.7225L488.19 28.1659C488.203 29.1559 488.216 30.1459 488.214 31.136C488.213 31.614 488.395 31.7622 488.83 31.7598C490.363 31.7501 491.896 31.7563 493.428 31.7624H493.428L493.43 31.7624C494.086 31.7651 494.743 31.7677 495.4 31.7691L495.409 31.7691C495.839 31.7702 496.062 31.7708 496.176 31.8823C496.298 32.0017 496.296 32.2481 496.292 32.7584V32.7587L496.292 32.7622C496.291 32.8375 496.29 32.9127 496.288 32.9879V32.988V32.9881V32.9882V32.9883V32.9885V32.9886V32.9887V32.9888V32.9889V32.989V32.9892V32.9893V32.9894V32.9895V32.9896C496.284 33.2228 496.28 33.4559 496.293 33.6882C496.317 34.1327 496.145 34.3144 495.732 34.3087C495.091 34.2986 494.45 34.302 493.809 34.3053C493.488 34.307 493.168 34.3087 492.847 34.3087C492.283 34.3087 491.72 34.308 491.156 34.3074L491.151 34.3074C489.455 34.3054 487.759 34.3034 486.063 34.3191C485.573 34.3237 485.373 34.1975 485.38 33.6084C485.402 31.8133 485.399 30.0183 485.396 28.2228V28.2226V28.2224V28.2222V28.222V28.2219V28.2217V28.2215V28.2213V28.2211V28.221V28.2208V28.2206V28.2204V28.2202V28.2201C485.394 27.5666 485.393 26.913 485.393 26.2594H485.378V26.2559C485.378 25.6034 485.379 24.9508 485.38 24.2982V24.2981V24.2979V24.2978V24.2977V24.2976V24.2975V24.2974V24.2972V24.2971V24.297V24.2969V24.2968V24.2967V24.2966ZM500.886 23.4322C500.881 23.5285 500.874 23.6247 500.867 23.721L500.867 23.7216C500.852 23.9203 500.838 24.119 500.839 24.3177C500.849 26.3651 500.862 28.4119 500.874 30.459C500.881 31.4788 500.887 32.4986 500.893 33.5186C500.896 34.0241 500.661 34.2783 500.187 34.2814C500.014 34.2825 499.841 34.2822 499.668 34.2819H499.667C499.306 34.2812 498.945 34.2805 498.585 34.293C498.249 34.3046 498.087 34.1541 498.082 33.7941C498.082 33.7461 498.081 33.6978 498.079 33.6494L498.079 33.6482C498.077 33.6003 498.075 33.5524 498.075 33.5047C498.078 32.2847 498.081 31.0647 498.084 29.8447C498.093 26.1847 498.103 22.5247 498.099 18.8647C498.099 18.3427 498.269 18.1899 498.722 18.2153C498.981 18.2297 499.241 18.2275 499.501 18.2253C499.847 18.2224 500.193 18.2195 500.536 18.2559C500.775 18.2813 501.086 18.4642 501.205 18.6795C502.891 21.6878 504.555 24.7124 506.213 27.7404C506.394 28.0712 506.552 28.4165 506.71 28.7617L506.71 28.7621L506.711 28.764C506.784 28.923 506.857 29.0819 506.932 29.2394L506.981 29.2291L507.06 29.2121L507.101 29.2035C507.11 29.1231 507.122 29.0428 507.134 28.9624C507.159 28.7916 507.184 28.6208 507.184 28.4499C507.18 25.2668 507.171 22.0849 507.151 18.9017C507.148 18.4387 507.233 18.1864 507.737 18.2292C508.322 18.279 508.913 18.2663 509.499 18.2385C509.887 18.2211 510.003 18.4121 509.989 18.786C509.983 18.9597 509.984 19.1333 509.985 19.307C509.985 19.3648 509.985 19.4227 509.985 19.4805C509.985 20.4537 509.985 21.427 509.985 22.4004C509.985 26.1338 509.985 29.8677 510 33.6008C510.002 34.1506 509.822 34.3092 509.35 34.2837C509.069 34.2688 508.787 34.2719 508.505 34.2749C508.199 34.2783 507.893 34.2816 507.588 34.2617C507.384 34.2479 507.1 34.1414 507.001 33.9735C505.97 32.2211 504.956 30.457 503.965 28.6791C503.367 27.6065 502.784 26.5245 502.201 25.4428L502.2 25.4414L502.199 25.4405L502.199 25.4397L502.199 25.4391L502.199 25.4386C501.889 24.8642 501.579 24.2898 501.267 23.7169C501.225 23.6395 501.169 23.57 501.114 23.5005C501.09 23.4702 501.066 23.44 501.043 23.409L500.886 23.4333V23.4322ZM343.263 33.5019V34.2983V34.3006H345.169C345.892 34.3009 346.615 34.3005 347.338 34.3001H347.338H347.338H347.338H347.338H347.338H347.338H347.338H347.339H347.339H347.339H347.339H347.339H347.339H347.339H347.34C349.429 34.299 351.518 34.2978 353.606 34.3133C354.078 34.3168 354.246 34.1709 354.189 33.6524C354.141 33.2148 354.151 32.7657 354.173 32.3236C354.192 31.915 354.023 31.7657 353.672 31.7691C353.418 31.7711 353.163 31.7686 352.909 31.766H352.909H352.909H352.909H352.909H352.909H352.908H352.908H352.908H352.908H352.908H352.908H352.908H352.908H352.908C352.717 31.7641 352.527 31.7622 352.337 31.7622C351.003 31.7639 349.67 31.7676 348.337 31.7713L348.335 31.7713L346.998 31.7749C346.18 31.7761 346.078 31.6742 346.082 30.7795C346.084 30.3966 346.092 30.0135 346.1 29.6304L346.1 29.6304C346.111 29.1274 346.122 28.6245 346.118 28.1218C346.112 27.1877 346.133 27.1391 347.003 27.1357C347.322 27.1344 347.64 27.133 347.959 27.1315C349.474 27.1244 350.988 27.1173 352.503 27.1403C353.029 27.1484 353.208 26.9331 353.174 26.3995L353.171 26.3633C353.149 26.0093 353.126 25.6514 353.153 25.301C353.195 24.7813 352.999 24.6575 352.54 24.6632C351.571 24.6742 350.601 24.6713 349.631 24.6684H349.631H349.631H349.631H349.631H349.631H349.631H349.631H349.631H349.631H349.631H349.631H349.631H349.631H349.631H349.631C348.661 24.6656 347.691 24.6627 346.721 24.6737C346.238 24.6794 346.11 24.4815 346.12 23.9977C346.13 23.528 346.112 23.0578 346.094 22.5874L346.094 22.5873C346.087 22.383 346.079 22.1787 346.073 21.9744C346.043 20.8551 346.078 20.825 347.123 20.8284C347.947 20.8307 348.771 20.8305 349.594 20.8303H349.594H349.594H349.594H349.594H349.594H349.594H349.594H349.594H349.594H349.594H349.594H349.594H349.594H349.594H349.594C350.889 20.83 352.183 20.8297 353.477 20.8389C353.934 20.8423 354.132 20.6618 354.103 20.1583L354.1 20.1021C354.075 19.6779 354.05 19.2463 354.103 18.8294C354.166 18.3375 353.991 18.2264 353.584 18.2275C350.308 18.238 347.034 18.2426 343.758 18.2299C343.348 18.2275 343.255 18.3908 343.255 18.8075C343.264 22.4814 343.263 26.1553 343.263 29.8287C343.263 31.0532 343.263 32.2776 343.263 33.5019ZM454.314 34.2795C454.339 34.1691 454.359 34.0726 454.377 33.9859C454.411 33.82 454.439 33.6896 454.479 33.5642C455.134 31.5119 455.792 29.4597 456.455 27.4098C456.836 26.2308 457.22 25.0525 457.604 23.8742L457.604 23.874C457.987 22.6958 458.371 21.5175 458.752 20.3386C458.812 20.1523 458.865 19.9627 458.919 19.7732L458.919 19.773L458.919 19.7728L458.919 19.7726L458.919 19.7723L458.919 19.7721L458.919 19.772C459.02 19.4099 459.122 19.0483 459.271 18.7112C459.367 18.4924 459.672 18.2667 459.895 18.2493C460.313 18.2157 460.732 18.2236 461.153 18.2315C461.427 18.2367 461.702 18.2418 461.976 18.2354C462.304 18.2273 462.451 18.3871 462.549 18.7007C462.984 20.0839 463.427 21.4648 463.88 22.8411C464.14 23.631 464.404 24.4193 464.668 25.2076C464.997 26.1923 465.327 27.177 465.648 28.1644C465.945 29.0756 466.233 29.9899 466.522 30.9041L466.522 30.9042L466.522 30.9043L466.522 30.9044L466.522 30.9045L466.522 30.9045L466.522 30.9046L466.522 30.9047L466.522 30.9048L466.522 30.9049L466.522 30.905L466.522 30.9051L466.522 30.9052L466.522 30.9053C466.738 31.591 466.954 32.2767 467.174 32.9611C467.223 33.1123 467.285 33.2578 467.348 33.4035C467.398 33.5199 467.448 33.6365 467.491 33.7563C467.6 34.0596 467.582 34.2888 467.196 34.2899C466.94 34.2899 466.684 34.2936 466.427 34.2974L466.427 34.2974C465.954 34.3042 465.481 34.3111 465.008 34.2946C464.868 34.2899 464.661 34.1094 464.612 33.96C464.33 33.1104 464.074 32.2493 463.835 31.3834C463.734 31.0165 463.567 30.836 463.198 30.8394C462.084 30.8495 460.971 30.8498 459.858 30.8501C459.441 30.8503 459.023 30.8504 458.606 30.851C458.212 30.851 458 31.0466 457.899 31.476C457.706 32.2967 457.475 33.1081 457.231 33.9126C457.186 34.0596 457.009 34.2587 456.888 34.2633C456.266 34.2868 455.644 34.2841 454.986 34.2814C454.767 34.2804 454.544 34.2795 454.316 34.2795H454.314ZM460.929 21.4533L460.739 21.4602C460.7 21.6185 460.662 21.7773 460.624 21.9361L460.624 21.9382C460.54 22.2887 460.457 22.6394 460.358 22.9846C460.156 23.6892 459.95 24.3927 459.744 25.0962L459.744 25.0971L459.744 25.0972L459.744 25.0973L459.744 25.0974L459.744 25.0975L459.744 25.0977L459.744 25.0978L459.744 25.098L459.744 25.0981L459.744 25.0983L459.744 25.0984L459.743 25.0986L459.743 25.0988L459.743 25.0989C459.489 25.9686 459.234 26.8384 458.987 27.7107C458.809 28.3392 458.943 28.5267 459.548 28.5372C460.472 28.5534 461.396 28.5592 462.32 28.5568C462.859 28.5568 462.951 28.4203 462.796 27.8589C462.26 25.9062 461.719 23.9535 461.172 22.0042C461.135 21.8738 461.074 21.7508 461.014 21.6281L461.014 21.628L461.014 21.6279L461.013 21.6274C460.985 21.5695 460.956 21.5118 460.93 21.4533H460.929ZM392.094 33.4526L392.094 33.4525L392.094 33.4523L392.094 33.4519L392.094 33.4513C392.107 33.3387 392.122 33.216 392.136 33.078L392.138 33.0769C392.217 33.1428 392.28 33.1919 392.331 33.2318C392.417 33.2984 392.47 33.3396 392.51 33.3917C394.164 35.5331 398.014 34.7738 399.105 32.0907C399.75 30.5072 399.907 28.9122 399.729 27.2396C399.6 26.0231 399.164 24.9374 398.412 24.0229C397.807 23.2879 397.079 22.8307 396.142 22.6617C395.213 22.4939 394.344 22.4418 393.526 22.9928C393.199 23.2137 392.887 23.4621 392.557 23.7258C392.397 23.853 392.233 23.9837 392.061 24.1167C392.041 24.0294 392.018 23.9475 391.996 23.8694C391.951 23.7091 391.91 23.5646 391.916 23.4222C391.937 22.9742 391.738 22.8481 391.371 22.8585L391.303 22.8604C390.863 22.8726 390.422 22.8848 389.984 22.8573C389.502 22.8272 389.338 23.0182 389.343 23.5553C389.359 25.7235 389.358 27.8923 389.357 30.0607V30.0621V30.0621V30.0622V30.0623V30.0623V30.0624V30.0625V30.0625V30.0626V30.0627V30.0627V30.0628V30.0628C389.357 30.7855 389.356 31.5082 389.356 32.2307C389.356 32.7609 389.358 33.2911 389.359 33.8213V33.8224C389.361 35.0269 389.364 36.2315 389.353 37.436C389.349 37.8828 389.503 38.0773 389.909 38.0715L390.09 38.0686C390.562 38.061 391.035 38.0533 391.507 38.0738C391.931 38.0923 392.062 37.8932 392.053 37.4534C392.032 36.3156 392.036 35.1789 392.043 34.0411C392.044 33.8577 392.066 33.6749 392.094 33.4527L392.094 33.4526ZM397.173 28.5884C397.191 28.5942 397.209 28.6 397.227 28.6055H397.228C397.183 28.8138 397.143 29.0244 397.104 29.235L397.104 29.2351L397.104 29.2351L397.104 29.2351L397.104 29.2352L397.104 29.2352L397.104 29.2353L397.104 29.2353L397.104 29.2354L397.104 29.2354L397.104 29.2355L397.104 29.2355L397.104 29.2356C397.017 29.6986 396.93 30.1615 396.781 30.5998C396.356 31.8441 395.59 32.3129 394.286 32.2423C393.315 32.1891 392.49 31.4413 392.188 30.3313C391.856 29.1148 391.891 27.8959 392.233 26.6933C392.572 25.4976 393.411 24.8563 394.58 24.8448C395.697 24.8343 396.458 25.4374 396.837 26.6516C396.928 26.9421 397.009 27.2408 397.054 27.5429C397.089 27.7768 397.102 28.0146 397.115 28.2525L397.115 28.2526L397.115 28.2527L397.115 28.2528L397.115 28.253L397.115 28.2531L397.116 28.2532L397.116 28.2533L397.116 28.2534L397.116 28.2536L397.116 28.2537L397.116 28.2538L397.116 28.2539L397.116 28.254C397.121 28.3616 397.127 28.4693 397.135 28.5765L397.173 28.5884ZM384.149 29.347H384.147V29.3424L385.268 29.3421H385.27C386.017 29.3418 386.764 29.3416 387.51 29.3424C387.755 29.3424 387.991 29.3366 387.98 28.9662C387.933 27.2959 387.619 25.7067 386.632 24.3744C384.979 22.1427 382.107 22.1867 380.604 23.0363C379.926 23.4206 379.228 23.9334 378.774 24.5816C377.846 25.9081 377.488 27.4927 377.637 29.1641C377.875 31.8182 379.019 33.7362 381.535 34.4481C383.647 35.0465 386.712 34.3856 387.634 31.633C387.804 31.1284 387.779 31.0497 387.261 31.0543C387.105 31.0557 386.947 31.0527 386.79 31.0498C386.43 31.0429 386.071 31.0361 385.716 31.0821C385.464 31.1149 385.217 31.3077 384.996 31.4795L384.98 31.4918C384.88 31.57 384.794 31.6717 384.708 31.7729C384.601 31.8981 384.496 32.0226 384.365 32.1007C382.987 32.926 380.805 32.4178 380.35 30.0866C380.232 29.4847 380.326 29.3528 380.893 29.3493C381.668 29.3443 382.443 29.3453 383.219 29.3462C383.528 29.3466 383.838 29.347 384.147 29.347V29.3493L384.149 29.347ZM382.783 27.3908V27.4116L383.44 27.4119C383.877 27.4122 384.315 27.4124 384.753 27.4116C385.071 27.4116 385.251 27.3028 385.187 26.8896C385.032 25.8884 384.527 25.1441 383.657 24.8605C382.726 24.5584 381.761 24.614 381.052 25.4879C380.768 25.8375 380.571 26.2889 380.406 26.7253C380.246 27.1454 380.368 27.4209 380.867 27.3978C381.313 27.3775 381.759 27.3822 382.206 27.3868C382.398 27.3888 382.591 27.3908 382.784 27.3908H382.783ZM423.175 28.3621C423.032 24.7865 420.774 22.4958 417.391 22.5387H417.392C414.19 22.7262 412.046 25.2032 412.144 28.8713C412.239 32.4318 414.742 34.7526 417.865 34.6218C421.191 34.4829 423.312 31.8091 423.175 28.3621ZM420.418 27.8532C420.468 28.092 420.518 28.3304 420.573 28.5658H420.574C420.519 28.8171 420.474 29.065 420.43 29.3079L420.43 29.3082C420.335 29.8328 420.244 30.3339 420.065 30.7951C419.46 32.3543 418.285 32.6633 416.782 32.3265C415.621 32.066 415.214 31.0208 414.98 29.9883C414.681 28.6665 414.735 27.3203 415.389 26.0667C415.951 24.9891 416.828 24.6256 417.893 24.6986C418.865 24.7657 419.66 25.2299 420.014 26.2566C420.191 26.7717 420.305 27.3136 420.418 27.8532ZM444.91 34.271H444.909C444.899 33.9606 444.888 33.6596 444.878 33.3648C444.856 32.7623 444.836 32.1861 444.822 31.6099C444.807 30.958 444.799 30.3058 444.79 29.6536V29.6534V29.6531V29.6529V29.6526V29.6524V29.6521V29.6519V29.6516V29.6514C444.772 28.2801 444.755 26.909 444.675 25.5423C444.599 24.2285 443.656 23.1821 442.478 22.8685C440.91 22.4506 439.345 22.3383 437.829 23.1115C436.83 23.6208 436.129 24.3952 435.933 25.6314C435.877 25.9891 435.943 26.1361 436.284 26.1407C436.692 26.1453 437.101 26.1673 437.508 26.1963C437.907 26.2252 438.177 26.1129 438.306 25.6407C438.369 25.4115 438.579 25.2089 438.759 25.0399C439.47 24.3737 440.329 24.5011 441.146 24.6223L441.153 24.6232C441.783 24.7158 442.258 25.3756 442.253 25.9393C442.248 26.5563 441.942 26.9151 441.219 27.1396C441.1 27.1763 440.979 27.2008 440.857 27.2254L440.857 27.2254C440.786 27.2396 440.716 27.2539 440.646 27.2704C440.309 27.3506 439.97 27.4253 439.631 27.5C438.84 27.6743 438.048 27.8487 437.275 28.0934C436.174 28.443 435.519 29.3261 435.386 30.5681C435.238 31.9606 435.575 33.1401 436.741 33.9631C437.994 34.8474 440.716 34.874 442.128 33.198C442.163 33.264 442.194 33.3292 442.225 33.3925C442.291 33.5312 442.353 33.6605 442.438 33.7686L442.464 33.8022L442.504 33.8558C442.637 34.0317 442.79 34.235 442.944 34.2478C443.433 34.2902 443.925 34.283 444.398 34.276C444.571 34.2735 444.742 34.271 444.909 34.271L444.909 34.2733L444.91 34.271ZM442.321 29.8517C442.336 28.4846 442.334 28.4754 441.145 28.8412C441.029 28.8767 440.913 28.912 440.797 28.9473L440.796 28.9476C440.093 29.1615 439.388 29.3758 438.707 29.6549C438.147 29.8852 437.854 30.4073 437.912 31.0809C437.964 31.6851 438.072 32.2257 438.731 32.478C440.596 33.1945 442.299 31.971 442.321 29.8517ZM427.544 24.1361C427.504 24.2008 427.464 24.2655 427.423 24.3291L427.422 24.3314L427.178 24.1994C427.171 24.1189 427.163 24.0383 427.154 23.9578C427.135 23.7803 427.116 23.603 427.118 23.4262C427.124 23.0141 426.963 22.8301 426.577 22.8394C426.061 22.8509 425.543 22.8532 425.028 22.822C424.598 22.7954 424.478 22.9979 424.483 23.4355C424.496 24.7817 424.497 26.1273 424.497 27.4732V27.495C424.497 27.9158 424.497 28.3367 424.497 28.7576L424.5 30.3185C424.502 31.3601 424.503 32.4019 424.504 33.4432C424.505 34.2835 424.525 34.3055 425.32 34.3079H426.389C426.893 34.3063 427.153 34.032 427.171 33.4849C427.176 33.2997 427.176 33.1137 427.176 32.9284V32.9277L427.176 32.8482C427.174 32.3541 427.17 31.8599 427.166 31.3657C427.156 30.2592 427.147 29.1528 427.166 28.0469C427.184 27.0503 427.342 26.0908 428.178 25.4368C429.166 24.6647 430.686 24.9576 431.156 26.1012C431.35 26.5758 431.408 27.1464 431.416 27.6754C431.439 29.0399 431.436 30.4056 431.433 31.7712C431.431 32.2568 431.43 32.7424 431.43 33.2279C431.429 33.9286 431.744 34.2808 432.374 34.2847C432.576 34.2861 432.779 34.2887 432.983 34.2914C433.118 34.2931 433.253 34.2949 433.387 34.2963H433.388C433.741 34.2991 433.92 34.3006 434.01 34.212C434.102 34.1214 434.102 33.9366 434.102 33.563V33.5497C434.102 33.0678 434.105 32.5858 434.108 32.1038C434.114 31.1396 434.119 30.1752 434.102 29.2114C434.099 29.0046 434.096 28.7973 434.094 28.5898L434.094 28.5871C434.082 27.6008 434.07 26.6105 433.924 25.6463C433.702 24.1821 432.893 23.035 431.538 22.6773C430.193 22.3231 428.833 22.4377 427.822 23.7214C427.72 23.8511 427.632 23.9934 427.544 24.1359L427.544 24.136L427.544 24.1361ZM469.199 26.2545C469.199 25.6151 469.199 24.9756 469.2 24.3361C469.202 22.4889 469.204 20.6413 469.19 18.7944C469.187 18.3407 469.363 18.2249 469.728 18.2307C470.315 18.2388 470.903 18.2458 471.489 18.2215C471.864 18.2064 472.001 18.4148 472.024 18.7701C472.036 18.9623 472.036 19.1556 472.035 19.3477L472.031 21.0285V21.032V21.0354V21.0389V21.0424V21.0458V21.0493V21.0527C472.022 24.3981 472.013 27.7442 471.999 31.0894C471.997 31.5107 472.122 31.7329 472.552 31.7318C473.587 31.728 474.622 31.7314 475.656 31.7347C476.543 31.7375 477.43 31.7403 478.317 31.7387C479.025 31.7376 479.083 31.785 479.088 32.5339C479.088 32.6735 479.093 32.8134 479.097 32.9533L479.097 32.9548V32.9549V32.9551V32.9553V32.9555V32.9557V32.9559V32.9561C479.107 33.2596 479.117 33.5627 479.088 33.8616C479.072 34.0178 478.88 34.203 478.729 34.2783C478.622 34.3306 478.489 34.3209 478.356 34.3113C478.303 34.3075 478.251 34.3037 478.201 34.3037C477.413 34.3021 476.625 34.2995 475.837 34.2968C473.831 34.2901 471.825 34.2834 469.819 34.2933C469.331 34.2956 469.167 34.1301 469.171 33.6023C469.184 31.7834 469.183 29.9639 469.181 28.1447V28.1446V28.1445V28.1444V28.1443V28.1442V28.1441V28.1439C469.18 27.5149 469.18 26.8858 469.18 26.2568H469.201L469.199 26.2545ZM375.739 26.5965C375.962 26.5952 376.195 26.5938 376.44 26.5938V26.5926C376.363 26.3782 376.298 26.1771 376.237 25.9874L376.237 25.9873L376.237 25.9872C376.113 25.6054 376.005 25.2698 375.847 24.9652C375.124 23.5762 373.966 22.8284 372.54 22.6247C371.445 22.4684 370.345 22.4789 369.307 23.0368C366.629 24.4755 365.957 27.4364 366.493 30.1403C366.978 32.5827 368.41 34.1499 370.748 34.5354C372.824 34.878 374.644 34.3548 375.884 32.3558C376.225 31.806 376.465 31.1832 376.407 30.4216C376.211 30.4216 376.018 30.4234 375.829 30.4252H375.829H375.829H375.829H375.829H375.829H375.829C375.393 30.4293 374.975 30.4332 374.557 30.4147C374.154 30.3961 373.886 30.4783 373.785 30.9726C373.735 31.2157 373.558 31.4529 373.387 31.6358C372.269 32.8269 370.339 32.6012 369.577 31.1173C368.821 29.6438 368.811 28.0765 369.385 26.5C369.793 25.3772 370.579 24.8656 371.645 24.795C372.619 24.729 373.254 25.2511 373.648 26.1933C373.716 26.3576 373.9 26.5695 374.039 26.5764C374.582 26.6035 375.127 26.6002 375.739 26.5965ZM365.217 34.2785L365.216 34.2785H365.216C364.494 34.2825 363.828 34.2861 363.164 34.2571C363.001 34.2502 362.795 34.0338 362.697 33.8555C362.44 33.3846 362.196 32.9044 361.952 32.424C361.794 32.111 361.635 31.7978 361.472 31.4873C361.363 31.2808 361.243 31.0814 361.102 30.8491L361.102 30.8489L361.102 30.8487L361.102 30.8486L361.102 30.8485L361.102 30.8485C361.031 30.7306 360.954 30.6042 360.871 30.464C360.75 30.6372 360.633 30.7987 360.521 30.9533C360.291 31.2719 360.082 31.5614 359.892 31.8646C359.673 32.2135 359.464 32.5697 359.255 32.9261C359.055 33.266 358.855 33.606 358.647 33.94C358.557 34.0835 358.386 34.2548 358.249 34.2595C357.632 34.2818 357.014 34.2793 356.339 34.2765H356.339H356.339H356.339H356.339H356.339C356.106 34.2755 355.865 34.2745 355.616 34.2745C355.735 34.0774 355.845 33.8917 355.951 33.7141C356.151 33.3776 356.333 33.0701 356.524 32.7686C357.389 31.4051 358.259 30.0462 359.131 28.6884C359.396 28.2775 359.252 27.943 359.02 27.583C358.236 26.3677 357.462 25.1445 356.688 23.921L356.363 23.4068C356.319 23.3362 356.284 23.2583 356.24 23.1579C356.216 23.1035 356.189 23.0426 356.156 22.9727C356.224 22.9545 356.289 22.9333 356.352 22.9128C356.48 22.8708 356.598 22.8323 356.717 22.8315L356.779 22.8309H356.779C357.398 22.8252 358.02 22.8195 358.636 22.8778C358.844 22.8975 359.105 23.0688 359.22 23.2574C359.607 23.8949 359.965 24.5528 360.324 25.2104L360.324 25.2114C360.408 25.3654 360.492 25.5194 360.577 25.6731C360.843 26.1581 361.025 26.1998 361.301 25.7299C361.534 25.3313 361.749 24.9197 361.964 24.5081L361.964 24.5081L361.964 24.5081L361.964 24.5081L361.964 24.508L361.964 24.5079L361.964 24.5079L361.964 24.5079C362.169 24.1151 362.375 23.7223 362.596 23.3408C362.721 23.1255 362.973 22.8778 363.181 22.8604C363.712 22.8188 364.246 22.8251 364.83 22.8319C365.058 22.8345 365.294 22.8373 365.54 22.8373C365.444 23.0047 365.356 23.1605 365.273 23.3078L365.273 23.3078C365.1 23.6136 364.948 23.8832 364.788 24.1464L364.659 24.358L364.659 24.3581L364.659 24.3581L364.659 24.3582L364.659 24.3583L364.659 24.3583C363.989 25.4603 363.318 26.5625 362.63 27.6525C362.399 28.0194 362.376 28.325 362.614 28.7035C363.436 30.0137 364.246 31.332 365.056 32.6508C365.259 32.9806 365.461 33.3105 365.664 33.6402C365.731 33.7487 365.792 33.861 365.869 34.0035L365.869 34.0035C365.912 34.083 365.96 34.1718 366.017 34.2745L366.019 34.2757C365.743 34.2757 365.476 34.2771 365.217 34.2785H365.217H365.217H365.217H365.217ZM402 27.631L402 27.6338C402.002 27.9421 402.003 28.2504 402.003 28.5588L402 28.5599H402.007V30.1225C402.007 30.2962 402.005 30.4699 402.003 30.6437C401.998 30.9912 401.994 31.3387 402.007 31.6852C402.05 32.7408 402.398 33.6494 403.374 34.0106C403.964 34.2294 404.626 34.2803 405.258 34.3C406.562 34.3399 406.562 34.3135 406.546 32.9438L406.546 32.8809C406.539 32.3646 406.391 32.2385 405.922 32.2558C405.084 32.2859 404.683 31.9144 404.664 31.0636C404.629 29.5126 404.626 27.961 404.623 26.4091V26.4091V26.409V26.409V26.4089C404.623 26.0128 404.622 25.6167 404.62 25.2205C404.618 24.8467 404.799 24.6534 405.159 24.6765C405.261 24.6831 405.363 24.6799 405.465 24.6767C405.523 24.6749 405.581 24.673 405.64 24.673C406.19 24.6684 406.469 24.3698 406.475 23.7771C406.482 23.1845 406.212 22.8758 405.667 22.8511C405.626 22.8494 405.584 22.8461 405.542 22.8427L405.542 22.8427C405.441 22.8345 405.339 22.8263 405.241 22.8419C404.748 22.9183 404.619 22.6428 404.628 22.1682C404.634 21.8103 404.631 21.4522 404.628 21.0942V21.0941V21.094V21.094V21.0939C404.624 20.6611 404.62 20.2285 404.633 19.7965C404.647 19.352 404.511 19.1576 404.089 19.1761C403.574 19.1981 403.057 19.1958 402.541 19.1761C402.152 19.161 401.998 19.3266 402.007 19.7514C402.021 20.3586 402.019 20.9659 402.016 21.5737C402.015 21.7375 402.014 21.9013 402.014 22.0652C402.01 22.8596 402.008 22.8595 401.305 22.8461L401.265 22.8454C401.052 22.8407 400.666 22.9241 400.652 23.019C400.581 23.5028 400.556 24.0133 400.63 24.4936C400.647 24.6013 401.119 24.6765 401.383 24.68C401.836 24.6869 402.019 24.8791 402.009 25.378C401.994 26.129 401.997 26.88 402 27.631ZM483.491 26.2862C483.491 26.9233 483.49 27.5602 483.489 28.1971C483.486 30.009 483.483 31.8206 483.502 33.6329C483.508 34.1538 483.336 34.3239 482.891 34.3031L482.73 34.2957C482.215 34.2722 481.698 34.2486 481.184 34.2695C480.773 34.2869 480.649 34.0913 480.657 33.6919C480.668 33.1525 480.669 32.6131 480.668 32.0726L480.667 29.8643C480.665 26.1843 480.662 22.5037 480.646 18.8239C480.643 18.3562 480.788 18.2058 481.196 18.2208C481.782 18.2416 482.372 18.2578 482.958 18.2185C483.399 18.1895 483.508 18.3967 483.507 18.8215C483.5 20.6869 483.501 22.5523 483.502 24.4182V24.4183V24.4185V24.4187C483.502 25.0407 483.502 25.6629 483.502 26.2851H483.491V26.2862ZM446.675 34.0858C446.68 34.1488 446.686 34.2178 446.691 34.2961V34.2949C446.893 34.2949 447.092 34.2936 447.29 34.2923C447.758 34.2891 448.217 34.2861 448.675 34.3007C449.146 34.3169 449.323 34.1282 449.316 33.5958C449.297 32.0777 449.301 30.5596 449.305 29.0414C449.306 28.6508 449.307 28.2602 449.308 27.8696L449.31 26.7343V26.7335V26.7327C449.314 24.0846 449.318 21.4358 449.334 18.7879C449.338 18.3573 449.187 18.1976 448.802 18.2138C448.538 18.2253 448.273 18.2255 448.007 18.2257C447.792 18.2259 447.577 18.2261 447.361 18.2323C446.664 18.252 446.659 18.2578 446.659 19.0183C446.658 23.9353 446.658 28.8524 446.658 33.7694C446.658 33.8675 446.666 33.9655 446.675 34.0858ZM410.872 28.5084V33.4243C410.872 34.2507 410.848 34.275 410.109 34.2843C409.989 34.2858 409.868 34.2863 409.748 34.2868H409.748C409.405 34.2882 409.063 34.2895 408.721 34.3144C408.328 34.3433 408.186 34.1905 408.19 33.7588C408.2 32.4954 408.197 31.2326 408.195 29.9695V29.9694C408.194 29.4203 408.193 28.8712 408.193 28.322C408.193 27.822 408.195 27.322 408.197 26.8222L408.197 26.8156V26.8154C408.2 25.7173 408.204 24.6196 408.19 23.5219C408.184 23.0137 408.358 22.832 408.813 22.8517C409.31 22.8737 409.811 22.869 410.306 22.8355C410.718 22.8077 410.867 22.9477 410.861 23.4188C410.843 24.6487 410.846 25.8799 410.849 27.1104V27.1116V27.1118C410.85 27.5774 410.851 28.043 410.851 28.5084H410.871H410.872ZM408.813 18.2247C408.613 18.2256 408.409 18.2266 408.201 18.2266V18.2254C408.201 18.4509 408.199 18.6654 408.197 18.8719C408.191 19.4139 408.187 19.9006 408.221 20.3842C408.233 20.5428 408.484 20.7939 408.638 20.8067C409.238 20.8564 409.847 20.8518 410.448 20.8067C410.591 20.7951 410.826 20.5601 410.835 20.4131C410.877 19.8008 410.867 19.1804 410.832 18.5669C410.826 18.4465 410.623 18.2463 410.505 18.2417C409.952 18.2192 409.398 18.2219 408.813 18.2247Z" fill="#FAFAFA"/>
<path fill-rule="evenodd" clip-rule="evenodd" d="M24.4421 21.5109C24.4421 22.0504 24.2173 22.5449 23.8801 22.9046C23.5204 23.2643 23.0484 23.4666 22.4864 23.4666C21.9469 23.4666 21.4523 23.2418 21.0927 22.9046C20.733 22.5449 20.5307 22.0729 20.5307 21.5109V12.6765C20.5307 12.3843 20.7105 12.1595 20.9803 12.0471C21.295 11.8897 21.812 11.7998 22.4864 11.7998C23.1608 11.7998 23.6778 11.8897 23.9925 12.0471C24.2398 12.182 24.4421 12.3843 24.4421 12.6765V21.5109ZM14.2817 24.2318C14.5514 24.7039 14.9785 25.0186 15.4731 25.1535C15.9676 25.2883 16.4846 25.2209 16.9567 24.9511C17.4288 24.6814 17.7435 24.2543 17.8784 23.7597C18.0132 23.2652 17.9458 22.7482 17.6761 22.2761L13.2476 14.6106C13.1127 14.3634 12.8205 14.2734 12.5508 14.2959C12.1911 14.3184 11.6965 14.4982 11.1121 14.8354C10.5276 15.1726 10.123 15.5098 9.92067 15.802C9.76332 16.0268 9.71836 16.3191 9.85323 16.5663L14.2817 24.2318ZM22.4866 40.1695C22.9586 40.1695 23.4082 40.0571 23.8353 39.8098L28.7583 36.9774C29.7474 36.4154 30.8938 36.1681 32.0403 36.303C38.0198 36.9999 42.2009 38.1239 43.4373 38.4835C43.6846 38.551 43.9768 38.461 44.1342 38.2587C44.3365 38.0115 44.5838 37.6068 44.7861 37.0224C44.9659 36.4604 44.9884 35.9883 44.9659 35.6511C44.9434 35.3814 44.7636 35.1341 44.4938 35.0667C42.5606 34.5047 33.996 32.1893 22.4866 32.1893C10.9771 32.1893 2.41248 34.5047 0.479259 35.0667C0.209507 35.1341 0.0296727 35.3814 0.00719332 35.6511C-0.015286 35.9658 0.00719401 36.4379 0.187029 37.0224C0.366864 37.6068 0.636616 38.0115 0.838931 38.2587C0.996286 38.461 1.28852 38.551 1.53579 38.4835C2.77216 38.1239 6.9758 36.9999 12.9328 36.303C14.0793 36.1681 15.2257 36.4154 16.2148 36.9774L21.1378 39.8098C21.5649 40.0571 22.037 40.1695 22.4866 40.1695ZM11.7187 29.9182C11.2467 30.0306 10.7072 29.9857 10.2351 29.7159L2.56963 25.2875C2.34483 25.1526 2.23244 24.8829 2.25492 24.5906C2.2774 24.231 2.45723 23.7364 2.79442 23.1519C3.13161 22.5675 3.4688 22.1629 3.76103 21.9605C3.98583 21.8032 4.27806 21.7582 4.52533 21.8931L12.1908 26.3215C12.6629 26.5913 13 27.0409 13.1124 27.5129C13.2248 27.985 13.1799 28.5245 12.9101 28.9966C12.6404 29.4686 12.2133 29.7834 11.7187 29.9182ZM29.5004 25.1535C29.995 25.0186 30.4221 24.7039 30.6918 24.2318L35.1203 16.5663C35.2551 16.3191 35.2102 16.0268 35.0528 15.802C34.8505 15.5098 34.4459 15.1726 33.8614 14.8354C33.2769 14.4982 32.7824 14.3184 32.4227 14.2959C32.153 14.2734 31.8607 14.3634 31.7259 14.6106L27.2974 22.2761C27.0277 22.7482 26.9602 23.2652 27.0951 23.7597C27.23 24.2543 27.5447 24.6814 28.0168 24.9511C28.4888 25.2209 29.0059 25.2883 29.5004 25.1535ZM34.7381 29.7159C34.266 29.9857 33.7265 30.0306 33.2545 29.9182C32.7599 29.7834 32.3328 29.4686 32.0631 28.9966C31.7933 28.5245 31.7484 27.985 31.8607 27.5129C31.9956 27.0184 32.3103 26.5913 32.7824 26.3215L40.4479 21.8931C40.6951 21.7582 40.9874 21.8032 41.2122 21.9605C41.5044 22.1629 41.8416 22.5675 42.1788 23.1519C42.516 23.7364 42.6958 24.231 42.7183 24.5906C42.7408 24.8829 42.6284 25.1526 42.4036 25.2875L34.7381 29.7159ZM83.0231 34.3468C83.1805 34.2344 83.4053 34.3019 83.4952 34.4592L84.7541 36.5723C84.8215 36.7072 84.799 36.8645 84.6866 36.9769C83.4502 38.1908 82.4162 38.6179 80.7977 38.6179C79.0892 38.6179 77.5157 37.8986 76.3917 36.1452C75.56 34.8639 73.3795 31.4245 73.3795 31.4245V37.966C73.3795 38.1458 73.2221 38.3032 73.0423 38.3032H69.7603C69.5805 38.3032 69.4231 38.1458 69.4231 37.966V17.8245C69.4231 17.6447 69.5805 17.4873 69.7603 17.4873H73.0198C73.1997 17.4873 73.357 17.6447 73.357 17.8245V29.6262L77.6281 23.759C77.6955 23.6691 77.7854 23.6242 77.8979 23.6242H81.7643C82.034 23.6242 82.1914 23.9389 82.0116 24.1637L77.0661 30.3005C77.0661 30.3005 78.2126 32.0989 79.1567 33.56C80.2807 35.291 81.7643 35.2685 83.0231 34.3468ZM62.0277 26.8161C61.4937 26.6381 61.0913 26.4977 60.7113 26.3651L60.7111 26.3651C60.3713 26.2465 60.0494 26.1342 59.6673 26.0068C58.8356 25.7146 57.4194 24.9053 57.4194 23.6015C57.4194 22.2977 58.3186 21.466 60.1394 21.466C61.8029 21.466 62.7245 22.2753 63.3315 23.5791C63.4214 23.7589 63.6237 23.8263 63.8035 23.7364L66.4786 22.1853C66.6134 22.0954 66.6809 21.9156 66.6134 21.7582C65.8042 19.9824 63.9159 17.8468 60.1844 17.8468C56.0257 17.8468 53.4181 20.3195 53.4181 23.5791C53.4181 26.8161 55.5536 28.502 58.4534 29.4911C58.822 29.6166 59.1139 29.7174 59.376 29.808C59.8654 29.977 60.2507 30.1101 60.8363 30.3004C62.5447 30.8848 63.3315 31.6491 63.3315 32.7057C63.3315 33.7622 62.6571 35.0211 60.0045 35.0211C57.5767 35.0211 56.7225 33.7397 56.228 32.5258C56.1606 32.346 55.9358 32.2561 55.7559 32.3685L52.946 33.987C52.8111 34.0769 52.7437 34.2343 52.8111 34.3916C53.8901 37.0442 56.8349 38.6177 60.1394 38.6177C64.0283 38.6177 67.3103 36.6396 67.3103 32.6382C67.3103 28.6369 63.0392 27.1533 62.0277 26.8161ZM199.04 23.6246H195.87C195.69 23.6246 195.533 23.782 195.51 23.9618V37.9665C195.51 38.1463 195.668 38.3037 195.847 38.3037H199.107C199.287 38.3037 199.444 38.1463 199.444 37.9665V30.908C199.444 28.3903 200.793 26.5919 204.12 27.2438C204.345 27.2888 204.524 27.1314 204.524 26.9291V23.737C204.524 23.5797 204.435 23.4448 204.277 23.4223C202.479 22.9952 200.006 23.9843 199.377 26.8617V23.9618C199.377 23.782 199.219 23.6246 199.04 23.6246ZM138.053 25.7151V23.9618C138.053 23.7819 138.211 23.6246 138.39 23.6246H141.65C141.83 23.6246 141.987 23.7819 141.987 23.9618V37.9664C141.987 38.1462 141.83 38.3036 141.65 38.3036H138.39C138.211 38.3036 138.053 38.1462 138.053 37.9664V36.1231C137.356 37.2021 135.828 38.6183 133.333 38.6183C128.567 38.6183 126.094 34.9766 126.094 30.9079C126.094 25.6028 129.781 23.3323 133.22 23.3323C135.491 23.3099 137.064 24.3889 138.053 25.7151ZM130.028 30.9304C130.028 33.448 131.579 35.3813 134.074 35.3813C136.57 35.3813 138.166 33.6953 138.166 31.1102C138.166 28.5251 136.615 26.5469 133.962 26.5469C131.467 26.5469 130.028 28.4801 130.028 30.9304ZM83.6301 23.6252H87.3167C87.4516 23.6252 87.564 23.7151 87.6314 23.8275L91.2956 33.2239L94.8473 23.8275C94.8923 23.6926 95.0272 23.6252 95.162 23.6252H98.7812C99.0285 23.6252 99.1858 23.8725 99.0734 24.0748L90.0817 44.7108C90.0367 44.8232 89.9018 44.9131 89.7895 44.9131H86.5974C86.3726 44.9131 86.1928 44.6659 86.3052 44.4636L89.3848 37.2477L83.3604 24.0748C83.2255 23.8725 83.3828 23.6252 83.6301 23.6252ZM144.932 23.9614V37.9661C144.932 38.1459 145.067 38.2808 145.269 38.3032H148.528C148.708 38.3032 148.866 38.1459 148.866 37.9661V30.7052C148.866 28.727 149.72 26.5915 152.148 26.5915C154.575 26.5915 154.912 28.9518 154.912 30.3231V37.9661C154.912 38.1459 155.07 38.3032 155.25 38.3032H158.509C158.689 38.3032 158.846 38.1459 158.846 37.9661V30.2556C158.846 24.5684 156.036 23.332 153.519 23.332C151.069 23.332 149.63 24.5459 148.866 25.8722V23.9614C148.866 23.7816 148.708 23.6242 148.528 23.6242H145.269C145.089 23.6242 144.932 23.7816 144.932 23.9614ZM161.633 37.9661V23.9614C161.633 23.7816 161.791 23.6242 161.971 23.6242H165.23C165.41 23.6242 165.567 23.7816 165.567 23.9614V25.8722C166.332 24.5459 167.77 23.332 170.221 23.332C172.738 23.332 175.548 24.5684 175.548 30.2556V37.9661C175.548 38.1459 175.391 38.3032 175.211 38.3032H171.952C171.772 38.3032 171.614 38.1459 171.614 37.9661V30.3231C171.614 28.9518 171.277 26.5915 168.849 26.5915C166.422 26.5915 165.567 28.727 165.567 30.7052V37.9661C165.567 38.1459 165.41 38.3032 165.23 38.3032H161.971C161.791 38.2808 161.633 38.1459 161.633 37.9661ZM105.337 29.2501L105.337 29.25L104.716 29.0193C103.929 28.727 103.232 28.2999 103.232 27.6705C103.232 27.0411 103.817 26.3442 105.008 26.3442C106.042 26.3442 106.672 26.7489 107.031 27.4682C107.121 27.648 107.324 27.693 107.481 27.6031L109.774 26.2768C109.931 26.1869 109.976 25.9846 109.886 25.8272C109.257 24.7257 108.021 23.332 105.031 23.332C101.367 23.332 99.4783 25.4451 99.4783 27.7829C99.4783 30.1208 101.389 31.2222 103.142 31.9191C105.038 32.6945 105.241 32.7682 105.472 32.8521L105.503 32.8632C106.11 33.1105 106.852 33.4927 106.852 34.1895C106.852 34.8864 106.042 35.5158 104.806 35.5158C103.66 35.5158 102.356 35.0437 101.816 33.7175C101.749 33.5376 101.524 33.4477 101.344 33.5601L99.0288 34.8864C98.8939 34.9763 98.8264 35.1337 98.8939 35.291C99.5683 37.0444 101.569 38.5955 104.806 38.5955C108.313 38.5955 110.651 36.7297 110.651 34.0996C110.651 31.4695 108.852 30.5479 106.897 29.8285C106.172 29.5609 105.779 29.4145 105.338 29.2504L105.337 29.2501ZM123.622 27.9864C122.61 27.2671 121.531 26.8175 120.07 26.8175C118.474 26.8175 115.596 27.7166 115.596 30.9537C115.596 34.1907 118.496 35.0899 120.092 35.0899C121.509 35.0899 122.767 34.5504 123.644 33.9209C123.801 33.8085 124.026 33.876 124.116 34.0333L125.442 36.3487C125.532 36.4836 125.487 36.6859 125.353 36.7758C124.116 37.5851 122.318 38.5966 119.89 38.5966C117.193 38.5966 115.079 37.6076 113.911 36.4386C112.742 35.2697 111.663 33.6062 111.663 30.9986C111.663 28.8406 112.359 27.0198 113.888 25.4912C115.417 23.9401 117.552 23.3107 119.868 23.3107C122.205 23.3107 123.936 24.1874 125.33 25.1315C125.487 25.2214 125.532 25.4013 125.442 25.5586L124.094 27.8965C124.004 28.0538 123.779 28.0988 123.622 27.9864ZM186.204 35.3596C184.9 35.3596 183.664 35.0449 182.765 34.3256C181.865 33.6062 181.438 32.8644 181.438 31.9877H193.083C193.262 31.9877 193.42 31.8304 193.42 31.6505C193.352 28.1887 192.228 26.5702 191.149 25.4687C190.025 24.3447 188.115 23.3107 185.597 23.3107C183.079 23.3107 181.146 24.2323 179.82 25.5361C178.516 26.8399 177.527 28.5034 177.527 31.0211C177.527 33.5388 178.538 35.2023 179.775 36.4386C181.011 37.675 183.034 38.5966 185.934 38.5966C188.677 38.5966 190.992 37.63 192.655 35.7193C192.79 35.5619 192.745 35.3147 192.566 35.2247L190.25 33.876C190.138 33.8085 189.98 33.8085 189.868 33.9209C188.722 35 187.26 35.3596 186.204 35.3596ZM185.574 26.4578C187.44 26.4578 189.149 27.5818 189.418 29.6049H181.573C182.09 27.4244 183.709 26.4578 185.574 26.4578Z" fill="white"/>
</svg>

