<svg xmlns="http://www.w3.org/2000/svg" viewBox="0 0 48.99 48.96"><path d="M22.91 32.39c-1.95 0-3.89-.33-5.53-1.83-1.54-1.41-2.34-3.16-2.38-5.2v-2.93l1.19-.02c1.38-.03 2.81-.06 4.19.45.04-.43.12-.85.24-1.26.31-1.1.9-2.09 1.74-2.95.37-.38.75-.75 1.14-1.14l.94-.93.88.85c1.2 1.15 2.44 2.33 2.94 4.11l.03.12c.11.43.19.85.24 1.26.78-.3 1.61-.46 2.5-.48h2.95l.02 1.19c.04 1.67.07 3.39-.84 5.01-.92 1.63-2.2 2.74-3.82 3.28-.81.28-1.67.38-2.32.44-.59.05-1.19.04-1.77.03h-1.19c-.38.01-.76.03-1.14.03ZM16 23.41V25.34c.04 1.75.73 3.26 2.06 4.48 1.68 1.54 3.76 1.65 5.93 1.54v-.11c-.02-.56-.03-1.12 0-1.67v-.14c-.06-.59-.15-1.37-.39-2.08-.48-1.38-1.4-2.44-2.84-3.25-1.4-.77-2.92-.74-4.53-.71h-.21Zm8.99 7.95h.26c.58.01 1.13.02 1.66-.03.6-.06 1.38-.15 2.09-.4 1.37-.46 2.47-1.41 3.27-2.82.77-1.38.74-2.89.71-4.5v-.21H31.03c-1.79.04-3.26.71-4.5 2.05-1.11 1.2-1.48 2.6-1.56 4.09.03.51.02 1.02 0 1.52V31.35Zm2.3-9.57c-.42-1.51-1.51-2.55-2.67-3.66l-.18-.17-.24.24c-.38.38-.76.75-1.12 1.13-.74.76-1.23 1.58-1.5 2.53-.13.47-.21.95-.23 1.45 1.53.89 2.59 2.1 3.14 3.62.28-.75.7-1.47 1.32-2.14.54-.58 1.12-1.05 1.75-1.42-.02-.47-.1-.97-.24-1.47" style="stroke-width:0"/></svg>