<svg version="1.1" fill="currentColor" viewBox="0 0 489.7 489.7" xmlns="http://www.w3.org/2000/svg">
<path d="m52.7 134.75c29.1 0 52.7-23.7 52.7-52.7s-23.6-52.8-52.7-52.8-52.7 23.7-52.7 52.7 23.7 52.8 52.7 52.8zm0-81c15.6 0 28.2 12.7 28.2 28.2s-12.7 28.2-28.2 28.2-28.2-12.7-28.2-28.2 12.7-28.2 28.2-28.2z"/><path d="m52.7 297.55c29.1 0 52.7-23.7 52.7-52.7s-23.6-52.7-52.7-52.7-52.7 23.6-52.7 52.7 23.7 52.7 52.7 52.7zm0-80.9c15.6 0 28.2 12.7 28.2 28.2s-12.7 28.2-28.2 28.2-28.2-12.6-28.2-28.2 12.7-28.2 28.2-28.2z"/><path d="m52.7 460.45c29.1 0 52.7-23.7 52.7-52.7 0-29.1-23.7-52.7-52.7-52.7s-52.7 23.7-52.7 52.7 23.7 52.7 52.7 52.7zm0-81c15.6 0 28.2 12.7 28.2 28.2 0 15.6-12.7 28.2-28.2 28.2s-28.2-12.7-28.2-28.2 12.7-28.2 28.2-28.2z"/><path d="m175.9 94.25h301.5c6.8 0 12.3-5.5 12.3-12.3s-5.5-12.3-12.3-12.3h-301.5c-6.8 0-12.3 5.5-12.3 12.3s5.5 12.3 12.3 12.3z"/><path d="m175.9 257.15h301.5c6.8 0 12.3-5.5 12.3-12.3s-5.5-12.3-12.3-12.3h-301.5c-6.8 0-12.3 5.5-12.3 12.3s5.5 12.3 12.3 12.3z"/><path d="m175.9 419.95h301.5c6.8 0 12.3-5.5 12.3-12.3s-5.5-12.3-12.3-12.3h-301.5c-6.8 0-12.3 5.5-12.3 12.3s5.5 12.3 12.3 12.3z"/>
</svg>
