<svg xmlns="http://www.w3.org/2000/svg" fill="currentColor" viewBox="0 0 48.99 48.99"><path d="M48.29 22.67s-.06-.08-.1-.12 0-.01 0-.01l-6.47-6.47-4.97-4.97-3.81-3.81L26.45.8c-.8-.8-1.99-1-2.98-.6-.34.13-.66.33-.92.59L16.94 6.4h.01l-.88.89h-.01L.8 22.54a2.758 2.758 0 0 0 0 3.89l15.26 15.26 6.5 6.5a2.758 2.758 0 0 0 3.89 0l15.26-15.26h-.01l.88-.89h.01l5.61-5.59c.26-.26.46-.58.59-.92.38-.94.21-2.05-.49-2.85ZM30.98 41.5l-5.61 5.61c-.47.47-1.29.47-1.77 0l-5.61-5.61-9.64-9.64-.88-.88-5.61-5.61c-.47-.47-.47-1.29 0-1.77l5.61-5.61h-.01l.88-.89h.01L23.62 1.86c.24-.24.56-.36.88-.36.11 0 .22.03.32.06.05.01.1 0 .14.03.11.05.21.12.31.2.03.03.07.04.1.07l5.6 5.6 4.69 4.69L41.51 18l5.6 5.6c.07.07.11.16.16.25.03.06.09.11.11.17.03.07.03.15.04.22.02.08.05.17.05.25 0 .32-.12.64-.36.88L31.85 40.63h.01l-.88.89h-.01Z" style="stroke-width:0"/></svg>