<svg viewBox="0 0 24 25" fill="none" xmlns="http://www.w3.org/2000/svg">
<path fill="currentColor" d="M22.105 4.276L10.855 0.186004C10.4774 0.04796 10.072 0.0031227 9.67336 0.0553031C9.27471 0.107483 8.89454 0.255139 8.56517 0.48572C8.23581 0.716301 7.96698 1.02299 7.78153 1.37973C7.59608 1.73646 7.49951 2.1327 7.5 2.53475V10.196C6.74358 9.74532 5.88048 9.50495 5 9.49975C2.2425 9.49975 0 11.7423 0 14.4998C0 17.2573 2.2425 19.4998 5 19.4998C7.7575 19.4998 10 17.2573 10 14.4998V2.53475L21.25 6.62475V15.1948C20.4932 14.745 19.6303 14.5051 18.75 14.4998C15.9925 14.4998 13.75 16.7423 13.75 19.4998C13.75 22.2573 15.9925 24.4998 18.75 24.4998C21.5075 24.4998 23.75 22.2573 23.75 19.4998V6.62475C23.75 5.57725 23.0888 4.63225 22.105 4.276ZM5 16.9998C3.62125 16.9998 2.5 15.8785 2.5 14.4998C2.5 13.121 3.62125 11.9998 5 11.9998C6.37875 11.9998 7.5 13.121 7.5 14.4998C7.5 15.8785 6.37875 16.9998 5 16.9998ZM18.75 21.9998C17.3713 21.9998 16.25 20.8785 16.25 19.4998C16.25 18.121 17.3713 16.9998 18.75 16.9998C20.1287 16.9998 21.25 18.121 21.25 19.4998C21.25 20.8785 20.1287 21.9998 18.75 21.9998Z" />
</svg>

