<svg data-name="Layer 2" xmlns="http://www.w3.org/2000/svg" viewBox="0 0 48.99 48.96"><path d="M19.99 33.53h-1V24c-.74-.09-1.42-.4-1.95-.88-.66-.59-1.05-1.42-1.05-2.27v-5.32h1v5.32c0 .57.25 1.11.71 1.52.35.31.8.53 1.29.61v-7.46h1v7.46c.49-.08.95-.3 1.3-.62.45-.41.7-.95.7-1.53v-5.32h1v5.32c0 .85-.38 1.67-1.03 2.27-.54.49-1.23.8-1.97.89v9.53Zm-.5-10h.02-.02Zm13 9.5h-6v-1h2.5v-7.02c-1.56-.15-3-1.03-3-2.57 0-1.38 1-6.76 1.04-6.99l.98.18c-.35 1.91-1.02 5.78-1.02 6.81 0 1.17 1.5 1.6 2.5 1.6s2.5-.43 2.5-1.6c0-1.29-1.01-6.76-1.02-6.81l.98-.18c.04.23 1.04 5.62 1.04 6.99 0 1.54-1.44 2.42-3 2.57v7.02h2.5v1Z" style="fill:#2220c1;stroke-width:0"/></svg>