<svg xmlns="http://www.w3.org/2000/svg" fill="currentColor" viewBox="0 0 49 49" style="enable-background:new 0 0 49 49" xml:space="preserve"><path d="m18 7.5-1-1.1L22.6.8c1-1 2.9-1 3.9 0L32 6.4l-1 1.1-5.6-5.6c-.5-.5-1.3-.5-1.8 0L18 7.5zM24.5 49c-.7 0-1.4-.3-1.9-.8L17 42.6l1.1-1.1 5.6 5.6c.5.5 1.3.5 1.8 0l5.6-5.6 1.1 1.1-5.6 5.6c-.7.5-1.4.8-2.1.8zm8.4-7.3-1.1-1.1 15.3-15.3c.5-.5.5-1.3 0-1.8L31.9 8.3 33 7.2l15.3 15.3c1.1 1.1 1.1 2.8 0 3.9L32.9 41.7zm-16.8 0L.8 26.4c-1.1-1.1-1.1-2.8 0-3.9L16.1 7.3l1.1 1.1L1.9 23.6c-.5.5-.5 1.3 0 1.8l15.3 15.3c-.1-.1-1.1 1-1.1 1z"/></svg>