<?xml version="1.0" encoding="UTF-8"?>
<svg id="Neighbourhoods" xmlns="http://www.w3.org/2000/svg" viewBox="0 0 48.99 48.96">
  <defs>
    <style>
      .cls-1 {
        fill: #2220c1;
        stroke-width: 0px;
      }
    </style>
  </defs>
  <path class="cls-1" d="m24.51,33.15l-.41-.55c-.23-.3-5.6-7.41-5.6-10.63,0-3.4,2.69-6.17,6-6.17s6,2.77,6,6.17c.03,2.5-5.02,9.79-5.59,10.62l-.39.56Zm-.02-16.35c-2.76,0-5,2.32-5,5.17,0,2.2,3.28,7.15,4.98,9.47,1.7-2.5,5.03-7.76,5.02-9.47,0-2.86-2.24-5.18-5-5.18Z"/>
  <path class="cls-1" d="m24.49,24.81c-1.65,0-3-1.35-3-3s1.35-3,3-3,3,1.35,3,3-1.35,3-3,3Zm0-5c-1.1,0-2,.9-2,2s.9,2,2,2,2-.9,2-2-.92-2-2-2Z"/>
</svg>