<svg xmlns="http://www.w3.org/2000/svg" id="Border" viewBox="0 0 48.99 48.96"><defs><style>.cls-1{stroke-width:0}</style></defs><path d="m18 7.45-1.06-1.06L22.55.78c1.04-1.04 2.85-1.04 3.89 0l5.61 5.61-1.06 1.06-5.61-5.61c-.47-.47-1.29-.47-1.77 0L18 7.45ZM24.49 48.96c-.73 0-1.42-.29-1.94-.81l-5.61-5.61L18 41.48l5.61 5.61c.47.47 1.29.47 1.77 0l5.61-5.61 1.06 1.06-5.61 5.61c-.52.52-1.21.81-1.94.81ZM32.92 41.67l-1.06-1.06 15.26-15.26c.49-.49.49-1.28 0-1.77L31.86 8.32l1.06-1.06 15.26 15.26a2.758 2.758 0 0 1 0 3.89L32.92 41.67ZM16.06 41.67.8 26.41a2.758 2.758 0 0 1 0-3.89L16.06 7.26l1.06 1.06L1.86 23.58a1.25 1.25 0 0 0 0 1.77l15.26 15.26-1.06 1.06Z" class="cls-1"/></svg>