<svg xmlns="http://www.w3.org/2000/svg" viewBox="0 0 48.99 48.96"><path d="M33.52 32.05H14.84v-2.31h-.36v-4.76c0-.93.68-1.76 1.59-1.93v-6.16h16.84v6.13c.92.2 1.59 1.01 1.59 1.93v4.79h-.36v2.28l-.63.03Zm-17.68-1 17.3-.03v-1.41h-17.3v1.44Zm16.07-7.29H17.07m-.78.28c-.47.08-.81.5-.81.95v3.62h18.03v-3.65c0-.45-.34-.85-.81-.95m-2.59-1.25h1.8v-4.85H17.07v4.85h1.32v-1.85c0-.6.52-1.09 1.15-1.09h4.06c.24 0 .47.07.65.19.19-.12.41-.19.65-.19h4.06c.64 0 1.15.49 1.15 1.09v1.85Zm-5.21 0h4.06c.1 0 .15-.06.15-.09v-1.76s-.05-.09-.15-.09H24.9c-.1 0-.15.06-.15.09v1.76s.05.09.15.09Zm-5.37 0h4.06c.1 0 .15-.06.15-.09v-1.76s-.06-.09-.15-.09h-4.06c-.1 0-.15.06-.15.09v1.76s.05.09.15.09Z" style="fill:stroke-width:0"/></svg>