<?xml version="1.0" encoding="utf-8"?>
<!-- Generator: Adobe Illustrator 27.8.1, SVG Export Plug-In . SVG Version: 6.00 Build 0)  -->
<svg version="1.1"
	 id="svg2" xmlns:inkscape="http://www.inkscape.org/namespaces/inkscape" xmlns:sodipodi="http://sodipodi.sourceforge.net/DTD/sodipodi-0.dtd" xmlns:svg="http://www.w3.org/2000/svg" sodipodi:docname="EA_Wordmark_Black.eps"
	 xmlns="http://www.w3.org/2000/svg" xmlns:xlink="http://www.w3.org/1999/xlink" x="0px" y="0px" viewBox="0 0 905 101"
	 style="enable-background:new 0 0 905 101;" xml:space="preserve">
<sodipodi:namedview  bordercolor="#000000" borderopacity="0.25" id="namedview4" inkscape:deskcolor="#000000" inkscape:pagecheckerboard="0" inkscape:pageopacity="0.0" inkscape:showpageshadow="2" pagecolor="#ffffff">
	</sodipodi:namedview>
<g id="g8" transform="matrix(1.3333333,0,0,-1.3333333,0,853.33333)" inkscape:groupmode="layer" inkscape:label="ink_ext_XXXXXX">
	<g id="g10" transform="scale(0.1)">
		<path id="path12" class="st0" d="M451.3,5790H0v610h448.7v-104.1h-325v-136.5h284.9v-101.5H123.7v-164.6h327.6V5790"/>
		<path id="path14" class="st0" d="M938.5,5790H800.3l-81,145h-1.7l-94.7-145H495.7l159.5,232.1l-142.5,205.6H645l77.6-125.4h1.7
			l73.4,125.4H918l-135.6-204.7L938.5,5790"/>
		<path id="path16" class="st0" d="M1161.3,5777.2c-138.2,0-224.4,100.7-224.4,231.2c0,130.5,85.3,231.2,218.4,231.2
			c113.5,0,183.4-65.7,198.8-160.4h-113.5c-7.7,38.4-37.5,67.4-80.2,67.4c-70,0-105.8-53.8-105.8-138.2
			c0-82.7,33.3-138.2,104.1-138.2c46.9,0,80.2,24.7,87.9,74.2h111.8C1350.7,5851.5,1278.1,5777.2,1161.3,5777.2"/>
		<path id="path18" class="st0" d="M1622,5777.2c-145,0-226.9,101.5-226.9,232c0,129.7,87.9,230.3,215.8,230.3
			c140.8,0,215.8-107.5,215.8-263.6h-317.4c8.5-67.4,46.1-109.2,111.8-109.2c45.2,0,71.7,20.5,84.5,53.8h114.3
			C1803.7,5842.9,1734.6,5777.2,1622,5777.2 M1612.6,6150c-61.4,0-91.3-36.7-101.5-93.9h194.5
			C1702.2,6111.7,1665.5,6150,1612.6,6150"/>
		<path id="path20" class="st0" d="M1988.9,5646.7h-116v581h111.8v-54.6h2.6c28.2,38.4,69.1,66.5,128.8,66.5
			c116,0,190.2-94.7,190.2-231.2c0-141.6-76.8-231.2-189.4-231.2c-61.4,0-101.5,24.7-126.2,62.3h-1.7L1988.9,5646.7 M2087.9,6145.8
			c-72.5,0-101.5-62.3-101.5-140.8c0-79.3,36.7-131.4,105.8-131.4c58.9,0,96.4,48.6,96.4,131.4
			C2188.5,6087.8,2159.5,6145.8,2087.9,6145.8"/>
		<path id="path22" class="st0" d="M2506.4,5789.2c-56.3,0-118.6,22.2-118.6,104.9v256.8h-60.6v76.8h60.6v136.5h113.5v-136.5h75.1
			v-76.8h-75.1v-232c0-32.4,17.9-43.5,43.5-43.5c14.5,0,34.1,0.9,34.1,0.9v-85.3C2578.9,5790.9,2552.4,5789.2,2506.4,5789.2"/>
		<path id="path24" class="st0" d="M2753.8,5790h-116v437.6h116V5790 M2753.8,6295.9h-116V6400h116V6295.9"/>
		<path id="path26" class="st0" d="M3026.8,5777.2c-135.6,0-228.6,100.7-228.6,231.2c0,130.5,93,231.2,228.6,231.2
			c135.6,0,228.6-100.7,228.6-231.2C3255.4,5877.9,3162.4,5777.2,3026.8,5777.2 M3026.8,6151.8c-71.7,0-110.9-58-110.9-143.3
			c0-85.3,39.2-142.5,110.9-142.5c70.8,0,110.9,57.2,110.9,142.5C3137.7,6093.7,3097.6,6151.8,3026.8,6151.8"/>
		<path id="path28" class="st0" d="M3698.2,5790h-116v268.7c0,46.9-27.3,80.2-75.9,80.2c-51.2,0-88.7-41-88.7-100.7V5790h-116v437.6
			H3415V6168h2.6c29.9,46.9,70,71.7,129.7,71.7c90.4,0,151-68.2,151-163.8V5790"/>
		<path id="path30" class="st0" d="M3893.7,5779.8c-89.6,0-152.7,46.9-152.7,133.9c0,96.4,78.5,127.1,175.7,140.8
			c72.5,10.2,105.8,16.2,105.8,49.5c0,31.6-24.7,52-73.4,52c-54.6,0-81-19.6-84.5-61.4h-103.2c3.4,76.8,60.6,144.2,188.5,144.2
			c131.4,0,184.3-58.9,184.3-161.2v-222.7c0-33.3,5.1-52.9,15.4-60.6v-4.3h-111.8c-6.8,8.5-11.1,29-13.6,48.6h-1.7
			C4000.3,5805.4,3968.7,5779.8,3893.7,5779.8 M4025,6010.1c-20.5-11.9-52-18.8-81-25.6c-60.6-13.6-90.4-27.3-90.4-68.2
			c0-41,27.3-55.4,68.2-55.4c66.5,0,103.2,40.9,103.2,83.6L4025,6010.1"/>
		<path id="path32" class="st0" d="M4200.8,5790h116v610h-116V5790z"/>
		<path id="path34" class="st0" d="M5063.8,5790h-128.8l-40.9,129.7h-220.1l-40.1-129.7h-125.4l212.4,610h128L5063.8,5790
			 M4783.1,6284c0,0-15.4-61.4-25.6-93.8l-54.6-175.8h161.3l-54.6,175.8c-10.2,32.4-24.7,93.8-24.7,93.8H4783.1"/>
		<path id="path36" class="st0" d="M5527.1,5790h-410.3v610h123.7v-506.7h286.6V5790"/>
		<path id="path38" class="st0" d="M5582.6,5790h123.7v610h-123.7V5790z"/>
		<path id="path40" class="st0" d="M6225.8,5790h-451.3v610h448.7v-104.1h-325v-136.5h291.5v-101.5h-291.5v-164.6h327.6V5790"/>
		<path id="path42" class="st0" d="M6782.1,5790h-119.4l-208.2,337c-19.6,32.4-43.5,84.5-43.5,84.5h-1.7c0,0,3.4-64,3.4-106.6V5790
			h-122v610h125.4l203-340.4c19.6-33.3,42.7-85.3,42.7-85.3h1.7c0,0-3.4,63.1-3.4,105.8V6400h122V5790"/>
	</g>
</g>
</svg>
