<svg xmlns="http://www.w3.org/2000/svg" fill="currentColor" xml:space="preserve" style="enable-background:new 0 0 904.3 100.4" viewBox="0 0 904.3 100.4"><path d="M60.173 81.333H0V0h59.827v13.88H16.493v18.2H54.48v13.533H16.493V67.56h43.68v13.773M125.133 81.333h-18.426L95.907 62h-.227L83.053 81.333h-16.96L87.36 50.387l-19-27.414H86l10.347 16.72h.226l9.787-16.72h16.04l-18.08 27.294 20.813 31.066M154.84 83.04c-18.427 0-29.92-13.427-29.92-30.827 0-17.4 11.373-30.826 29.12-30.826 15.133 0 24.453 8.76 26.507 21.386h-15.134c-1.026-5.12-5-8.986-10.693-8.986-9.333 0-14.107 7.173-14.107 18.426 0 11.027 4.44 18.427 13.88 18.427 6.254 0 10.694-3.293 11.72-9.893h14.907c-1.027 12.386-10.707 22.293-26.28 22.293M216.267 83.04c-19.334 0-30.254-13.533-30.254-30.933 0-17.294 11.72-30.707 28.774-30.707 18.773 0 28.773 14.333 28.773 35.147h-42.32c1.133 8.986 6.147 14.56 14.907 14.56 6.026 0 9.56-2.734 11.266-7.174h15.24c-2.16 10.347-11.373 19.107-26.386 19.107m-1.254-49.707c-8.186 0-12.173 4.894-13.533 12.52h25.933c-.453-7.413-5.346-12.52-12.4-12.52M265.187 100.44H249.72V22.973h14.907v7.28h.346c3.76-5.12 9.214-8.866 17.174-8.866 15.466 0 25.36 12.626 25.36 30.826 0 18.88-10.24 30.827-25.254 30.827-8.186 0-13.533-3.293-16.826-8.307h-.227l-.013 25.707m13.2-66.547c-9.667 0-13.534 8.307-13.534 18.774 0 10.573 4.894 17.52 14.107 17.52 7.853 0 12.853-6.48 12.853-17.52-.013-11.04-3.88-18.774-13.426-18.774M334.187 81.44c-7.507 0-15.814-2.96-15.814-13.987v-34.24h-8.08v-10.24h8.08v-18.2h15.134v18.2h10.013v10.24h-10.013v30.934c0 4.32 2.386 5.8 5.8 5.8 1.933 0 4.546-.12 4.546-.12V81.2c0 .013-3.533.24-9.666.24M367.173 81.333h-15.466V22.987h15.466v58.346m0-67.453h-15.466V0h15.466v13.88M403.573 83.04c-18.08 0-30.48-13.427-30.48-30.827 0-17.4 12.4-30.826 30.48-30.826s30.48 13.426 30.48 30.826-12.4 30.827-30.48 30.827m0-49.947c-9.56 0-14.786 7.734-14.786 19.107s5.226 19 14.786 19c9.44 0 14.787-7.627 14.787-19 0-11.36-5.347-19.107-14.787-19.107M493.093 81.333h-15.466V45.507c0-6.254-3.64-10.694-10.12-10.694-6.827 0-11.827 5.467-11.827 13.427v33.093h-15.467V22.987h15.12v7.946h.347c3.987-6.253 9.333-9.56 17.293-9.56 12.054 0 20.134 9.094 20.134 21.84v38.12M519.16 82.693c-11.947 0-20.36-6.253-20.36-17.853 0-12.853 10.467-16.947 23.427-18.773 9.666-1.36 14.106-2.16 14.106-6.6 0-4.214-3.293-6.934-9.786-6.934-7.28 0-10.8 2.614-11.267 8.187h-13.76c.453-10.24 8.08-19.227 25.133-19.227 17.52 0 24.574 7.854 24.574 21.494V72.68c0 4.44.68 7.053 2.053 8.08v.573h-14.907c-.906-1.133-1.48-3.866-1.813-6.48h-.227c-2.96 4.427-7.173 7.84-17.173 7.84m17.507-30.706c-2.734 1.586-6.934 2.506-10.8 3.413-8.08 1.813-12.054 3.64-12.054 9.093 0 5.467 3.64 7.387 9.094 7.387 8.866 0 13.76-5.453 13.76-11.147v-8.746M560.107 81.333h15.466V0h-15.466v81.333zM675.173 81.333H658l-5.453-17.293H623.2l-5.347 17.293h-16.72L629.453 0h17.067l28.653 81.333m-37.426-65.866s-2.054 8.186-3.414 12.506l-7.28 23.44h21.507l-7.28-23.44c-1.36-4.32-3.293-12.506-3.293-12.506h-.24M736.947 81.333H682.24V0h16.493v67.56h38.214v13.773M744.347 81.333h16.493V0h-16.493v81.333zM830.107 81.333h-60.174V0h59.827v13.88h-43.333v18.2h38.866v13.533h-38.866V67.56h43.68v13.773M904.28 81.333h-15.92L860.6 36.4c-2.613-4.32-5.8-11.267-5.8-11.267h-.227s.454 8.534.454 14.214v41.986H838.76V0h16.72l27.067 45.387c2.613 4.44 5.693 11.373 5.693 11.373h.227s-.454-8.413-.454-14.107V0h16.267v81.333"/></svg>