<svg xmlns="http://www.w3.org/2000/svg" id="Layer_1" data-name="Layer 1" viewBox="0 0 392.23 141.45"><defs><style>.cls-1{stroke-width:0}</style></defs><path d="m204.44 15.21-1.33-1.33h-33.97l42.05 42.05h-88.02v24.02h88.02l-42.05 42.06h33.97l54.06-54.07-52.73-52.73zM0 0h104.06v24.14H28.69v31.65h66.08v23.54H28.69v38.18h75.97v23.94H0V0ZM312.7 0h29.67l49.85 141.45h-29.87l-9.5-30.07h-51.04l-9.3 30.07h-29.08L312.7 0Zm-4.15 89.42h37.39l-12.66-40.75c-2.37-7.52-5.74-21.76-5.74-21.76h-.4s-3.56 14.24-5.94 21.76l-12.66 40.75Z" class="cls-1"/></svg>